<!-- Generated by IcoMoon.io -->
<svg version="1.1" xmlns="http://www.w3.org/2000/svg" width="1024" height="1024" viewBox="0 0 1024 1024">
<title></title>
<g id="icomoon-ignore">
</g>
<path d="M918.959 344.186c-0.503-34.379-6.869-68.486-19.063-100.64-21.333-54.907-64.777-98.324-119.778-119.578-31.795-11.944-65.412-18.348-99.443-19.074-43.759-1.953-57.634-2.498-168.725-2.498-111.087 0-125.326 0-168.77 2.498-33.981 0.727-67.599 7.13-99.398 19.074-54.999 21.254-98.488 64.672-119.778 119.578-11.964 31.745-18.423 65.307-19.060 99.232-1.956 43.735-2.548 57.586-2.548 168.492 0 110.903 0 125.073 2.548 168.491 0.682 33.971 7.097 67.486 19.060 99.324 21.335 54.861 64.779 98.278 119.823 119.531 31.662 12.352 65.279 19.349 99.398 20.437 43.808 1.954 57.682 2.543 168.771 2.543 111.087 0 125.329 0 168.772-2.543 33.98-0.683 67.597-7.087 99.443-19.029 54.997-21.299 98.441-64.717 119.778-119.578 11.964-31.791 18.377-65.306 19.059-99.324 1.954-43.691 2.547-57.54 2.547-168.491-0.090-110.904-0.090-124.983-2.637-168.445zM511.676 720.998c-116.182 0-210.303-93.965-210.303-209.954 0-115.993 94.121-209.957 210.303-209.957 116.096 0 210.304 93.964 210.304 209.957 0 115.989-94.208 209.954-210.304 209.954zM730.351 342.279c-27.157 0-49.037-21.89-49.037-48.958s21.879-48.957 49.037-48.957c27.068 0 48.994 21.89 48.994 48.957s-21.926 48.958-48.994 48.958z"></path>
<path d="M511.744 639.236c70.763 0 128.128-57.365 128.128-128.128s-57.365-128.129-128.128-128.129c-70.763 0-128.129 57.367-128.129 128.129s57.367 128.128 128.129 128.128z"></path>
</svg>
