<!-- Generated by IcoMoon.io -->
<svg version="1.1" xmlns="http://www.w3.org/2000/svg" width="1088" height="1024" viewBox="0 0 1088 1024">
<title></title>
<g id="icomoon-ignore">
</g>
<path fill="#000" d="M962.63 10.043h-128.301c-39.59 0-71.686 31.451-71.686 70.251v125.737c0 38.799 32.096 70.252 71.686 70.252h128.301c39.59 0 71.686-31.453 71.686-70.252v-125.737c0-38.8-32.096-70.251-71.686-70.251z"></path>
<path fill="#000" d="M247.372 737.28h-138.173c-42.636 0-77.199 31.456-77.199 70.253v125.734c0 38.803 34.563 70.253 77.199 70.253h138.173c42.636 0 77.199-31.45 77.199-70.253v-125.734c0-38.797-34.563-70.253-77.199-70.253z"></path>
<path fill="#000" d="M231.987 370.618h-128.303c-39.589 0-71.684 31.451-71.684 70.25v125.737c0 38.799 32.102 70.253 71.692 70.253h128.296c39.591 0 71.686-31.453 71.686-70.253v-125.737c0-38.799-32.095-70.25-71.686-70.25z"></path>
<path fill="#000" d="M600.509 735.302h-128.303c-39.589 0-71.684 31.45-71.684 70.246l-0.007 125.741c0 38.797 32.109 70.253 71.699 70.253h128.296c39.594 0 71.69-31.456 71.69-70.253v-125.741c0-38.797-32.096-70.246-71.69-70.246z"></path>
<path fill="#000" d="M231.987 2.761h-128.303c-39.589 0-71.684 31.451-71.684 70.25v125.737c0 38.799 32.102 70.253 71.692 70.253h128.296c39.591 0 71.686-31.453 71.686-70.253v-125.737c0-38.799-32.095-70.25-71.686-70.25z"></path>
<path fill="#000" d="M610.428 374.319h-128.303c-39.589 0-71.684 31.451-71.684 70.25v125.737c0 38.799 32.102 70.25 71.692 70.25h128.296c39.594 0 71.684-31.451 71.684-70.25v-125.737c0-38.799-32.090-70.25-71.684-70.25z"></path>
<path fill="#000" d="M970.669 735.302h-128.307c-39.584 0-71.68 31.45-71.68 70.246v125.741c0 38.797 32.102 70.253 71.686 70.253h128.301c39.59 0 71.686-31.456 71.686-70.253v-125.741c0-38.797-32.096-70.246-71.686-70.246z"></path>
<path fill="#000" d="M594.899 7.159h-128.303c-39.589 0-71.684 31.451-71.684 70.251v125.737c0 38.799 32.102 70.252 71.692 70.252h128.296c39.591 0 71.686-31.476 71.686-70.276v-125.713c0-38.8-32.095-70.251-71.686-70.251z"></path>
<path fill="#000" d="M961.402 381.626h-128.307c-39.59 0-71.68 31.451-71.68 70.25v125.737c0 38.799 32.102 70.252 71.686 70.252h128.301c39.59 0 71.686-31.453 71.686-70.252v-125.737c0-38.799-32.096-70.25-71.686-70.25z"></path>
</svg>
